<svg width="131" height="81" viewBox="0 0 131 81" fill="none" xmlns="http://www.w3.org/2000/svg">
<path d="M88.6089 48.959L77.5527 71.8521L76.7084 73.5989C76.4503 74.0488 76.1646 74.482 75.8531 74.8959C74.5294 76.666 72.7851 78.0685 70.7823 78.973C68.7796 79.8774 66.5835 80.2545 64.3982 80.0691C62.2129 79.8836 60.1094 79.1418 58.2833 77.9124C56.4572 76.6831 54.9678 75.0062 53.9535 73.0377L53.759 72.6437L39.0981 43.1613L25.0686 72.0826L24.1876 73.8999C22.4812 76.8091 19.7341 78.9416 16.5162 79.855C13.2983 80.7684 9.85657 80.3925 6.90506 78.8054C3.95356 77.2183 1.71878 74.5418 0.664328 71.3311C-0.390122 68.1203 -0.183307 64.6218 1.24187 61.5614L1.31161 61.4201L1.43275 61.1674L27.0067 8.5614V8.53167L27.6197 7.26809C28.7201 5.26801 30.3167 3.59307 32.2518 2.40863C34.187 1.2242 36.3938 0.571228 38.6543 0.514188C40.9149 0.457149 43.1511 0.998012 45.1421 2.08338C47.1331 3.16875 48.8101 4.76109 50.0075 6.70319L51.083 8.86243L65.2777 37.4046C66.1514 39.129 69.7707 46.9521 76.6864 49.3566C80.7389 50.7614 84.9675 50.1854 88.6089 48.959Z" fill="#4EC9B0"/>
<path d="M50.0076 6.68472L50.0039 6.67346" stroke="#231F20" stroke-width="0.433735" stroke-miterlimit="10"/>
<path d="M89.0274 48.093L88.609 48.959C84.9676 50.1854 80.7389 50.7614 76.7011 49.3641C69.7855 46.9595 66.1661 39.1365 65.2925 37.412L67.6674 32.5063C68.6696 36.862 70.4609 41.4035 73.7241 44.7483C78.5365 49.6837 84.1123 49.7469 89.0274 48.093Z" fill="#32A691"/>
<path d="M116.18 34.8291C113.273 32.5732 108.269 30.1947 101.662 33.1158C98.5787 34.4723 95.0805 36.3863 92.1732 41.6042C91.9824 41.9461 91.8062 42.2991 91.6043 42.667L91.6336 42.7228L91.5309 42.9384L89.0458 48.0893C84.1307 49.7431 78.5512 49.6799 73.7388 44.7445C70.4756 41.3997 68.6842 36.8583 67.6821 32.5026L79.3954 8.30497L79.4138 8.2678L79.4982 8.08941L79.5166 8.04853L80.1443 6.75521C81.2454 4.7549 82.8429 3.08001 84.7789 1.896C86.715 0.711991 88.9226 0.0598149 91.1838 0.00389551C93.4449 -0.0520239 95.6814 0.490248 97.6723 1.57715C99.6631 2.66404 101.339 4.25797 102.536 6.20147V6.22005L103.582 8.32355L103.611 8.37929L116.587 34.4686C116.634 34.5233 116.658 34.5948 116.653 34.6673C116.649 34.7397 116.616 34.8073 116.562 34.8551C116.508 34.9029 116.437 34.927 116.365 34.9222C116.294 34.9173 116.227 34.8838 116.18 34.8291Z" fill="#36B199"/>
<path d="M125.213 74.4239C123.535 76.6674 121.189 78.3065 118.522 79.1003C115.855 79.8942 113.007 79.8008 110.396 78.8341C107.786 77.8674 105.55 76.0782 104.018 73.7295C102.486 71.3809 101.739 68.5967 101.886 65.7861C102.033 62.9755 103.067 60.2868 104.835 58.1152C106.603 55.9435 109.013 54.4035 111.71 53.7215C114.407 53.0394 117.249 53.2513 119.819 54.326C122.388 55.4007 124.549 57.2815 125.984 59.692L126.839 61.4015L126.858 61.4424C127.727 63.5633 128.032 65.8775 127.744 68.155C127.455 70.4324 126.583 72.5937 125.213 74.4239Z" fill="#CBD2D9"/>
<path d="M129.982 61.4424L129.996 61.4759L130 61.4833" stroke="#231F20" stroke-width="0.433735" stroke-miterlimit="10"/>
</svg>
